<svg id="Camada_1" data-name="Camada 1" xmlns="http://www.w3.org/2000/svg" xmlns:xlink="http://www.w3.org/1999/xlink" viewBox="0 0 622 648"><defs><style>.cls-1{fill:none;}.cls-2{fill:#00438c;}.cls-3,.cls-8{fill:#fff;}.cls-3{opacity:0.1;}.cls-4{clip-path:url(#clip-path);}.cls-5{fill:#ffb800;}.cls-6{fill:#f4aa00;}.cls-7{fill:#303030;}.cls-9{fill:#ff4e02;}.cls-10{fill:#005fda;}.cls-11{fill:#00be69;}.cls-12{fill:#003c58;}</style><clipPath id="clip-path"><path class="cls-1" d="M573,329.09a229,229,0,1,1-458,0c0-51-76.19-162.94-48-201,17.76-24,118.39-42.5,144-58,34.56-20.93,62.65-25,106-25,.3,0,34.7-7,35-7,43,.16,110.69,28.21,145,49,25.61,15.5,13.38,81.86,31.13,105.83A227.94,227.94,0,0,1,573,329.09Z"/></clipPath></defs><title>Icone_oficinaPrancheta 2</title><path class="cls-2" d="M573,329.09a229.06,229.06,0,1,1-229-229h.9a227.84,227.84,0,0,1,117.54,33A229.12,229.12,0,0,1,573,329.09Z"/><path class="cls-3" d="M514.35,311.43A197.39,197.39,0,1,1,317,114.09h.77a196.12,196.12,0,0,1,101.29,28.4,197.41,197.41,0,0,1,95.29,168.93Z"/><g class="cls-4"><path class="cls-5" d="M596.41,470.39,531.12,302.07A63.44,63.44,0,0,0,495,265.88l-94.26-36.77-37,14.33L497.71,505.25"/><path class="cls-6" d="M430.84,240.84l-30.07-11.73-37,14.33,48.73,125.7,59.15-22.93Zm0,0"/><path class="cls-7" d="M121.62,167.21,313.87,92.69a31.72,31.72,0,0,1,41,18.11L498.23,480.51a31.72,31.72,0,0,1-18.12,41L287.87,596.07A31.73,31.73,0,0,1,246.82,578L103.51,208.26a31.73,31.73,0,0,1,18.11-41Zm0,0"/><path d="M310.55,128l5.73,14.79,44.36-17.2-5.73-14.79a31.72,31.72,0,0,0-41-18.11l-44.36,17.2a31.71,31.71,0,0,1,41,18.11Zm0,0"/><rect class="cls-8" x="163.19" y="162.52" width="269.63" height="348.93" transform="translate(-101.65 130.49) rotate(-21.19)"/><path class="cls-9" d="M157.68,238.29l29.58-11.47a7.94,7.94,0,0,1,10.26,4.53L209,260.93a7.94,7.94,0,0,1-4.53,10.26l-29.57,11.46a7.93,7.93,0,0,1-10.26-4.53l-11.47-29.57a7.94,7.94,0,0,1,4.53-10.26Zm0,0"/><path class="cls-10" d="M231.62,209.63l29.58-11.47a7.94,7.94,0,0,1,10.26,4.53l11.46,29.57a7.92,7.92,0,0,1-4.53,10.26L248.82,254a7.94,7.94,0,0,1-10.26-4.53L227.1,219.89a7.92,7.92,0,0,1,4.52-10.26Zm0,0"/><path class="cls-11" d="M305.56,181l29.58-11.46A7.93,7.93,0,0,1,345.4,174l11.46,29.57a7.92,7.92,0,0,1-4.52,10.26l-29.58,11.47a7.94,7.94,0,0,1-10.26-4.53L301,191.22A7.92,7.92,0,0,1,305.56,181Zm0,0"/><path class="cls-12" d="M186.34,312.23l29.58-11.47a7.94,7.94,0,0,1,10.26,4.53l11.47,29.58a7.94,7.94,0,0,1-4.53,10.26l-29.58,11.46a7.92,7.92,0,0,1-10.26-4.52l-11.47-29.58a7.94,7.94,0,0,1,4.53-10.26Zm0,0"/><path class="cls-10" d="M215,386.17l29.58-11.47a7.94,7.94,0,0,1,10.26,4.53l11.47,29.58a7.94,7.94,0,0,1-4.53,10.26L232.2,430.54A7.94,7.94,0,0,1,221.94,426l-11.46-29.58A7.92,7.92,0,0,1,215,386.17Zm0,0"/><path class="cls-11" d="M260.28,283.57l29.58-11.47a7.94,7.94,0,0,1,10.26,4.53l11.47,29.58a7.94,7.94,0,0,1-4.53,10.26l-29.58,11.46a7.94,7.94,0,0,1-10.26-4.53l-11.46-29.57a7.93,7.93,0,0,1,4.52-10.26Zm0,0"/><path class="cls-12" d="M334.22,254.9l29.58-11.46A7.94,7.94,0,0,1,374.06,248l11.47,29.57A7.94,7.94,0,0,1,381,287.8l-29.58,11.47a7.94,7.94,0,0,1-10.26-4.53L329.7,265.16a7.94,7.94,0,0,1,4.52-10.26Zm0,0"/><path class="cls-9" d="M288.94,357.51,318.52,346a7.93,7.93,0,0,1,10.26,4.53l11.47,29.58a7.94,7.94,0,0,1-4.53,10.26l-29.58,11.46a7.93,7.93,0,0,1-10.25-4.53l-11.47-29.57a7.93,7.93,0,0,1,4.52-10.26Zm0,0"/><path class="cls-9" d="M243.67,460.11l29.58-11.46a7.94,7.94,0,0,1,10.26,4.52L295,482.75A7.94,7.94,0,0,1,290.44,493l-29.57,11.47A8,8,0,0,1,250.6,500l-11.46-29.58a7.94,7.94,0,0,1,4.53-10.26Zm0,0"/><path class="cls-11" d="M317.61,431.45,347.19,420a7.94,7.94,0,0,1,10.26,4.53l11.46,29.58a7.93,7.93,0,0,1-4.53,10.26l-29.57,11.46a7.92,7.92,0,0,1-10.26-4.53l-11.47-29.57a7.94,7.94,0,0,1,4.53-10.26Zm0,0"/><rect x="353.71" y="509.28" width="37.37" height="37.36" rx="18.68" ry="18.68" transform="translate(-165.65 170.29) rotate(-21.19)"/><rect x="102.99" y="173.78" width="269.63" height="15.86" transform="translate(-49.6 98.24) rotate(-21.19)"/><rect x="223.38" y="484.33" width="269.63" height="15.86" transform="matrix(0.93, -0.36, 0.36, 0.93, -153.71, 162.74)"/><path class="cls-5" d="M543.59,414.72a7.89,7.89,0,0,1-6.07-.15L465.7,382.88a7.93,7.93,0,0,1,6.4-14.51l71.83,31.69a7.94,7.94,0,0,1-.34,14.66Zm0,0"/><path class="cls-12" d="M391.55,402.51,421.13,391a7.94,7.94,0,0,1,10.26,4.53l11.46,29.58a7.93,7.93,0,0,1-4.53,10.26l-29.57,11.46a7.92,7.92,0,0,1-10.26-4.52L387,412.77a7.94,7.94,0,0,1,4.53-10.26Zm0,0"/><path class="cls-10" d="M363,328.31l29.58-11.47a7.94,7.94,0,0,1,10.26,4.53L414.27,351a7.93,7.93,0,0,1-4.53,10.26l-29.57,11.46a7.93,7.93,0,0,1-10.26-4.53l-11.47-29.57A7.94,7.94,0,0,1,363,328.31Zm0,0"/><path class="cls-5" d="M481.42,529.55a14.19,14.19,0,0,1-18.35-8.1h0a188.89,188.89,0,0,1-10.34-98.51,14.14,14.14,0,0,0-8.27-15.19L383,380.61a33.67,33.67,0,0,1-17.19-44.39c.44-1,.94-2,1.47-2.94a34.62,34.62,0,0,1,44.21-13.65l147.21,65a14.16,14.16,0,0,1,7.5,7.85l30,77.42a14.19,14.19,0,0,1-8.1,18.35Zm-13.23,5.12"/></g></svg>