<svg id="Camada_1" data-name="Camada 1" xmlns="http://www.w3.org/2000/svg" viewBox="0 0 622 648"><defs><style>.cls-1{fill:#04006e;}.cls-2{fill:#fff;opacity:0.15;}.cls-3,.cls-6{fill:#ffb800;}.cls-3{opacity:0.5;}.cls-4{fill:#ccc;}.cls-5{fill:#efefef;}.cls-7{fill:#005fda;}</style></defs><title>Icone_oficinaPrancheta 1</title><path class="cls-1" d="M541,329a228,228,0,0,1-44.87,136.16,230.5,230.5,0,0,1-35.52,38.07,228.86,228.86,0,0,1-297.23,0,230.5,230.5,0,0,1-35.52-38.07,229.08,229.08,0,0,1,0-272.33,230.37,230.37,0,0,1,65.7-59.87A227.94,227.94,0,0,1,312,100h.89a227.79,227.79,0,0,1,117.54,32.95,230.37,230.37,0,0,1,65.7,59.87A228,228,0,0,1,541,329Z"/><path class="cls-2" d="M509.35,297.3A197.31,197.31,0,0,1,183.93,447.45a198.66,198.66,0,0,1-30.61-32.8A197.32,197.32,0,0,1,312,100h.77a196.12,196.12,0,0,1,101.29,28.4A197.38,197.38,0,0,1,509.35,297.3Z"/><path class="cls-3" d="M277.11,373.67a7,7,0,0,1-7,7h-32L195.67,423.1a7,7,0,0,1-4.93,2H156.58a14,14,0,1,1,0-14h31.27l42.44-42.45a7,7,0,0,1,4.94-2h34.89a7,7,0,0,1,7,7Zm-7-94.17h-32l-42.45-42.45a7,7,0,0,0-4.93-2H156.58a14,14,0,1,0,0,14h31.27l42.44,42.44a7,7,0,0,0,4.94,2h34.89a7,7,0,1,0,0-14ZM138,337.06H270.12v-14H138a14,14,0,1,0,0,14Zm215.92-43.6h34.9a7,7,0,0,0,4.93-2L436.16,249h31.27a14,14,0,1,0,0-14H433.27a7,7,0,0,0-4.93,2L385.89,279.5h-32a7,7,0,1,0,0,14ZM479.52,404.21a13.93,13.93,0,0,0-12.09,7H436.16l-42.44-42.45a7,7,0,0,0-4.93-2h-34.9a7,7,0,1,0,0,14h32l42.45,42.44a7,7,0,0,0,4.93,2h34.16a14,14,0,1,0,12.09-20.94Zm18.62-88.09a13.93,13.93,0,0,0-12.09,7H353.89v14H486.05a14,14,0,1,0,12.09-20.94Zm0,0"/><path class="cls-4" d="M419,455.71H205a18.61,18.61,0,0,1-18.61-18.61v-214A18.61,18.61,0,0,1,205,204.44H419a18.61,18.61,0,0,1,18.61,18.61V437.1A18.61,18.61,0,0,1,419,455.71Zm0,0"/><path class="cls-5" d="M419,455.71H232a18.61,18.61,0,0,1-18.61-18.61v-214A18.61,18.61,0,0,1,232,204.44H419a18.61,18.61,0,0,1,18.61,18.61V437.1A18.61,18.61,0,0,1,419,455.71Zm0,0"/><path class="cls-6" d="M407.07,523.66V489.5a6.94,6.94,0,0,0-2-4.93l-42.45-42.45v-25h15.5A21,21,0,0,0,399,396.15V264a21,21,0,0,0-20.94-20.94h-15.5V218L405,175.59a7,7,0,0,0,2-4.94V117.49a14,14,0,1,0-13.95,0v50.27l-42.45,42.45a7,7,0,0,0-2,4.93v27.92H319V98.88a14,14,0,1,0-14,0V243.06H275.38V215.14a7,7,0,0,0-2-4.93l-42.45-42.45V117.49a14,14,0,1,0-13.95,0v53.16a7,7,0,0,0,2,4.94L261.43,218v25h-15.5A21,21,0,0,0,225,264V396.15a21,21,0,0,0,20.94,20.94h15.5v25L219,484.57a6.94,6.94,0,0,0-2,4.93v34.16a14,14,0,0,0-6.89,10.42,226.67,226.67,0,0,0,24.63,10.56,13.95,13.95,0,0,0-3.79-21V492.39L273.34,450a7,7,0,0,0,2-4.94V417.09H305V542.27a14,14,0,0,0-7,12.09,13.5,13.5,0,0,0,.4,3.33q6.72.39,13.56.4t13.56-.4A14,14,0,0,0,319,542.27V417.09h29.64V445a7,7,0,0,0,2,4.94l42.45,42.44v31.27a13.95,13.95,0,0,0-3.79,21A226.67,226.67,0,0,0,414,534.08a14,14,0,0,0-6.89-10.42ZM239,396.15V264a7,7,0,0,1,7-7H378.08a7,7,0,0,1,7,7V396.15a7,7,0,0,1-7,7H245.93a7,7,0,0,1-7-7Zm0,0"/><rect class="cls-7" x="238.99" y="257.09" width="146" height="146" rx="5.33" ry="5.33"/><path class="cls-6" d="M273.42,355.51a6.53,6.53,0,0,0,8.64-3.27l3.41-7.59h21.78l3.41,7.59a6.53,6.53,0,0,0,6,3.85,6.38,6.38,0,0,0,2.68-.58,6.53,6.53,0,0,0,3.28-8.63l-20.26-45a6.54,6.54,0,0,0-11.92,0l-20.26,45a6.52,6.52,0,0,0,3.28,8.63Zm22.94-35.06,5,11.13h-10Zm0,0"/><path class="cls-6" d="M347.34,349.56v-45a6.54,6.54,0,0,0-13.07,0v45a6.54,6.54,0,0,0,13.07,0Zm0,0"/></svg>