<svg id="Camada_1" data-name="Camada 1" xmlns="http://www.w3.org/2000/svg" xmlns:xlink="http://www.w3.org/1999/xlink" viewBox="0 0 622 648"><defs><style>.cls-1{fill:none;}.cls-2{fill:#005fda;}.cls-3,.cls-6{fill:#fff;}.cls-3{opacity:0.1;}.cls-4{clip-path:url(#clip-path);}.cls-5{fill:#003c58;}.cls-7{fill:#ffb800;}.cls-8{clip-path:url(#clip-path-2);}.cls-9{fill:#ff4e02;}</style><clipPath id="clip-path"><path class="cls-1" d="M623,329.09c0,51-104.9,98.1-133.09,136.16a229.18,229.18,0,0,1-276.45,73.46,229,229,0,0,1-56.3-35.4,230.46,230.46,0,0,1-35.52-38.06C93.45,427.19-18,345.08-18,294.09s66.81-159.94,95-198c17.76-24,80.39-6.5,106-22,34.56-20.93,68.65-38,112-38,.3,0,62.7-6,63-6,43,.16,66.69,14.21,101,35,25.61,15.5,64.24,45,82,69C569.19,172.15,623,278.09,623,329.09Z"/></clipPath><clipPath id="clip-path-2"><rect class="cls-1" x="60.13" y="84.88" width="490.59" height="484.2"/></clipPath></defs><title>Icone_oficinaPrancheta 3</title><path class="cls-2" d="M535,328.09a229.06,229.06,0,1,1-229-229h.9a227.84,227.84,0,0,1,117.54,33A229.12,229.12,0,0,1,535,328.09Z"/><path class="cls-3" d="M503.35,296.43A197.39,197.39,0,1,1,306,99.09h.77a196.12,196.12,0,0,1,101.29,28.4,197.41,197.41,0,0,1,95.29,168.93Z"/><g class="cls-4"><path class="cls-5" d="M253.71,540.57H357.14v28.27a12.92,12.92,0,0,1-12.93,12.92H266.64a12.92,12.92,0,0,1-12.93-12.92Zm0,0"/><path class="cls-6" d="M383.91,517.92l-26.77,22.65H253.71l-26.77-22.65V481h157Zm0,0"/><path class="cls-7" d="M437.09,310.94a131.7,131.7,0,1,0-239,76.66,161.36,161.36,0,0,1,29.18,93.56l157-.35A166.44,166.44,0,0,1,413.84,386a131.09,131.09,0,0,0,23.25-75Zm0,0"/><path class="cls-6" d="M391.69,340.39l-.05-22.58-18,0a68.82,68.82,0,0,0-12-29l12.63-12.68-16-15.93-12.59,12.65a68.64,68.64,0,0,0-29.13-12l0-17.82-22.57.06,0,17.81a68.77,68.77,0,0,0-29,12.15l-12.65-12.59-15.93,16L249,289.07a68.75,68.75,0,0,0-11.88,29.08l-18,0,0,22.57,18,0a68.73,68.73,0,0,0,12.12,28.87L236.6,382.44l16,15.93,12.83-12.88a68.73,68.73,0,0,0,28.88,11.89l0,18.19,22.57-.05,0-18.19a68.79,68.79,0,0,0,28.83-12l12.88,12.82,15.93-16-12.85-12.82a68.8,68.8,0,0,0,12-28.91Zm0,0"/><rect class="cls-5" x="226.94" y="504.07" width="156.96" height="13.41"/><g class="cls-8"><path class="cls-7" d="M344.82,328.08a40.45,40.45,0,1,1-40.53-40.37,40.44,40.44,0,0,1,40.53,40.37Zm0,0"/><path class="cls-9" d="M305.43,136.94a6.7,6.7,0,0,1-6.71-6.7V91.59c0-8.94,13.41-8.94,13.41,0v38.65a6.7,6.7,0,0,1-6.7,6.7Zm0,0"/><path class="cls-9" d="M446.81,195.5a6.7,6.7,0,0,1-4.74-11.44l27.33-27.33c6.32-6.33,15.81,3.16,9.48,9.48l-27.33,27.33a6.63,6.63,0,0,1-4.74,2Zm0,0"/><path class="cls-9" d="M544,336.89H505.37c-8.95,0-8.95-13.42,0-13.42H544c9,0,9,13.42,0,13.42Zm0,0"/><path class="cls-9" d="M105.48,336.89H66.84c-9,0-9-13.42,0-13.42h38.64c9,0,9,13.42,0,13.42Zm0,0"/></g><path class="cls-9" d="M164,195.5a6.71,6.71,0,0,1-4.74-2L132,166.21c-6.32-6.32,3.17-15.81,9.49-9.49l27.33,27.33a6.71,6.71,0,0,1-4.74,11.45Zm0,0"/><rect class="cls-7" x="54.34" y="319.37" width="74.22" height="21.21" rx="10.6" ry="10.6"/><rect class="cls-7" x="484" y="319.37" width="74.22" height="21.21" rx="10.6" ry="10.6"/><rect class="cls-7" x="267.96" y="95.34" width="74.22" height="21.21" rx="10.6" ry="10.6" transform="translate(199.13 411.01) rotate(-90)"/><rect class="cls-7" x="425.55" y="163.2" width="74.22" height="21.21" rx="10.6" ry="10.6" transform="translate(12.61 378.06) rotate(-45)"/><rect class="cls-7" x="111.79" y="160.37" width="74.22" height="21.21" rx="10.6" ry="10.6" transform="translate(133.29 397.16) rotate(-135)"/></g></svg>