<svg id="Camada_1" data-name="Camada 1" xmlns="http://www.w3.org/2000/svg" viewBox="0 0 622 648"><defs><style>.cls-1{fill:#00b1ff;}.cls-2{fill:#fff;opacity:0.3;}.cls-3{fill:#003c58;}.cls-4{fill:#efefef;}.cls-5{fill:#eea600;}.cls-6{fill:#ffb800;}.cls-7{fill:#00be69;}</style></defs><title>Icone_oficinaPrancheta 4</title><path class="cls-1" d="M540,329.09a229.06,229.06,0,1,1-229-229h.9a227.84,227.84,0,0,1,117.54,33A229.12,229.12,0,0,1,540,329.09Z"/><path class="cls-2" d="M508.35,297.43A197.39,197.39,0,1,1,311,100.09h.77a196.12,196.12,0,0,1,101.29,28.4,197.41,197.41,0,0,1,95.29,168.93Z"/><path class="cls-3" d="M495.13,167.09V465.25a229,229,0,0,1-368.26,0V167.09a34,34,0,0,1,34-34H461.1A34,34,0,0,1,495.13,167.09Z"/><path class="cls-4" d="M459.62,231.15V503.31a228.78,228.78,0,0,1-297.24,0V231.15a21.45,21.45,0,0,1,21.45-21.45H438.17A21.45,21.45,0,0,1,459.62,231.15Z"/><path class="cls-5" d="M402.13,142.21v60.21a20.36,20.36,0,0,1-20.37,20.37H240.23a20.37,20.37,0,0,1-20.37-20.37V142.21a20.36,20.36,0,0,1,20.37-20.37h35.63a39.25,39.25,0,0,1,67.94-4.06c.07.11.14.22.2.33.55.85,1.08,1.73,1.55,2.63.22.39.41.76.58,1.1h35.63A20.36,20.36,0,0,1,402.13,142.21Z"/><path class="cls-6" d="M402.13,142.21v60.21a20.36,20.36,0,0,1-20.37,20.37H254.25a20.37,20.37,0,0,1-20.37-20.37V142.21a20.36,20.36,0,0,1,20.37-20.37h21.61a39.25,39.25,0,0,1,67.94-4.06c.07.11.14.22.2.33.6,1,1.12,1.85,1.55,2.63.22.39.41.76.58,1.1h35.63A20.36,20.36,0,0,1,402.13,142.21Z"/><circle class="cls-3" cx="311" cy="132.12" r="13.55"/><path class="cls-5" d="M361.47,192.88h-101a9.82,9.82,0,0,1-9.81-9.82h0a9.81,9.81,0,0,1,9.81-9.81h101a9.81,9.81,0,0,1,9.81,9.81h0A9.82,9.82,0,0,1,361.47,192.88Z"/><path class="cls-7" d="M252.11,336.82H193.23a9.35,9.35,0,0,1-9.35-9.35V268.58a9.35,9.35,0,0,1,9.35-9.34h58.88a9.34,9.34,0,0,1,9.35,9.34v58.89A9.35,9.35,0,0,1,252.11,336.82Zm-49.53-18.7h40.19V277.93H202.58Z"/><path class="cls-3" d="M346.52,289.15H287.63a9.35,9.35,0,0,1,0-18.7h58.89a9.35,9.35,0,1,1,0,18.7Z"/><path class="cls-3" d="M419.42,325.6H287.63a9.35,9.35,0,0,1,0-18.69H419.42a9.35,9.35,0,1,1,0,18.69Z"/><path class="cls-7" d="M252.11,437.76H193.23a9.35,9.35,0,0,1-9.35-9.34V369.53a9.35,9.35,0,0,1,9.35-9.35h58.88a9.35,9.35,0,0,1,9.35,9.35v58.89A9.34,9.34,0,0,1,252.11,437.76Zm-49.53-18.69h40.19V378.88H202.58Z"/><path class="cls-3" d="M346.52,390.09H287.63a9.35,9.35,0,0,1,0-18.69h58.89a9.35,9.35,0,1,1,0,18.69Z"/><path class="cls-3" d="M419.42,426.55H287.63a9.35,9.35,0,0,1,0-18.7H419.42a9.35,9.35,0,0,1,0,18.7Z"/><path class="cls-7" d="M252.11,461.13H193.23a9.35,9.35,0,0,0-9.35,9.35v49.11a227.93,227.93,0,0,0,34.8,19.12h33.43a9.35,9.35,0,0,0,9.35-9.35V470.48A9.35,9.35,0,0,0,252.11,461.13ZM242.77,520H202.58V479.83h40.19Z"/><path class="cls-3" d="M346.52,491H287.63a9.35,9.35,0,0,1,0-18.69h58.89a9.35,9.35,0,1,1,0,18.69Z"/><path class="cls-3" d="M419.42,527.49H287.63a9.35,9.35,0,0,1,0-18.69H419.42a9.35,9.35,0,1,1,0,18.69Z"/><path class="cls-3" d="M222.2,429.35a9.34,9.34,0,0,1-7.77-4.16l-29.91-44.87A9.35,9.35,0,0,1,200.07,370l20.75,31.13L247.41,345a9.34,9.34,0,1,1,16.89,8l-33.65,71a9.36,9.36,0,0,1-7.77,5.32Z"/></svg>