<svg id="Camada_1" data-name="Camada 1" xmlns="http://www.w3.org/2000/svg" xmlns:xlink="http://www.w3.org/1999/xlink" viewBox="0 0 622 648"><defs><style>.cls-1{fill:none;}.cls-2{fill:#f58c28;}.cls-3{fill:#fff;opacity:0.2;}.cls-4{clip-path:url(#clip-path);}.cls-5{fill:#0077da;}.cls-6{fill:#005fda;}.cls-7{fill:#e1e1e1;}.cls-8{fill:#d3d3d3;}.cls-9{fill:#efefef;}.cls-10{fill:#00be69;}.cls-11{fill:#50ce84;}</style><clipPath id="clip-path"><path class="cls-1" d="M543,329.09A229,229,0,0,1,92.81,388.61c-5.09-19-54.81-.93-54.81-21.52,0-51,63.67-136.11,91.87-174.17,17.75-24,23.52-48.33,49.13-63.83,13-39,49.59-40.16,43-83-4-26,103.7-3,104-3,43,.16,141.69,45.21,176,66,25.61,15.5,26.24,47,44,71C574.19,218.15,543,278.09,543,329.09Z"/></clipPath></defs><title>Icone_oficinaPrancheta 6</title><path class="cls-2" d="M543,329.09a229.06,229.06,0,1,1-229-229h.9a227.84,227.84,0,0,1,117.54,33A229.12,229.12,0,0,1,543,329.09Z"/><path class="cls-3" d="M511.35,297.43A197.39,197.39,0,1,1,314,100.09h.77a196.12,196.12,0,0,1,101.29,28.4,197.41,197.41,0,0,1,95.29,168.93Z"/><g class="cls-4"><path class="cls-5" d="M64.59,334.09l167.7-258L400,334.09Zm0,0"/><path class="cls-6" d="M64.59,334.09l167.7-258v258Zm0,0"/><rect class="cls-1" x="9" y="83.09" width="396.06" height="397.32"/><rect class="cls-1" x="9" y="83.09" width="396.06" height="397.32"/><rect class="cls-7" x="121" y="352.5" width="171.96" height="171.96"/><path class="cls-8" d="M293,352.5H121l61.42-61.41h172Zm0,0"/><path class="cls-9" d="M354.38,463.05,293,524.46v-172l61.42-61.41Zm0,0"/><path class="cls-9" d="M182.42,506H145.57a6.13,6.13,0,0,1-6.14-6.14h0V450.77a6.14,6.14,0,0,1,12.28,0v43h30.71a6.14,6.14,0,0,1,0,12.28Zm0,0"/><path class="cls-9" d="M219.26,506H207a6.14,6.14,0,1,1,0-12.28h12.28a6.14,6.14,0,1,1,0,12.28Zm0,0"/><path class="cls-10" d="M340.25,160.78V479.93c0,26.45,35.72,47.88,79.79,47.88s79.79-21.43,79.79-47.88V160.78Zm0,0"/><path class="cls-11" d="M420,503.87c-31.14,0-52.22-12.74-55.48-21.94a7.75,7.75,0,0,1-.46-2.66l0-95.09a8,8,0,0,1,16,0h0l0,92.49a63.13,63.13,0,0,0,40,11.23c25,0,38.74-9.47,40.8-11.67a8,8,0,0,1,14.49,6.6c-3.35,8.6-25,21-55.29,21Zm0,0"/><path class="cls-11" d="M499.83,160.78c0-26.44-35.73-47.88-79.79-47.88s-79.79,21.44-79.79,47.88S376,208.65,420,208.65s79.79-21.44,79.79-47.87Zm0,0"/><path class="cls-11" d="M372.16,360.25a8,8,0,0,1-8-8h0v-16a8,8,0,1,1,16,0v16a8,8,0,0,1-8,8Zm0,0"/></g></svg>