<svg id="Camada_1" data-name="Camada 1" xmlns="http://www.w3.org/2000/svg" xmlns:xlink="http://www.w3.org/1999/xlink" viewBox="0 0 622 648"><defs><style>.cls-1{fill:none;}.cls-2{fill:#ff4e02;}.cls-3{fill:#fff;opacity:0.2;}.cls-4{clip-path:url(#clip-path);}.cls-5{fill:#efefef;}.cls-6{fill:#d3d3d3;}.cls-7{fill:#005fda;}.cls-8{fill:#ffb800;}</style><clipPath id="clip-path"><path class="cls-1" d="M540,329.09a228.91,228.91,0,0,1-356.12,190.5c-7.49-5-29,10.33-35.88,4.5-13.23-11.29-29.63-20-40-34-28.19-38.06-26-110-26-161a228.89,228.89,0,0,1,229-229h.9a227.84,227.84,0,0,1,117.54,33A229.12,229.12,0,0,1,540,329.09Z"/></clipPath></defs><title>Icone_oficinaPrancheta 7</title><path class="cls-2" d="M540,327.09a229.06,229.06,0,1,1-229-229h.9a227.84,227.84,0,0,1,117.54,33A229.12,229.12,0,0,1,540,327.09Z"/><path class="cls-3" d="M508.35,295.43A197.39,197.39,0,1,1,311,98.09h.77a196.12,196.12,0,0,1,101.29,28.4,197.41,197.41,0,0,1,95.29,168.93Z"/><g class="cls-4"><path class="cls-5" d="M455.55,388.18c-30.82,61.51-64,85.54-79.13,104.3v.23c-5.95,20.52.61,89.16,8.41,98.84l-171-49.6a86.43,86.43,0,0,0-2-43.6l-.05-.84c-32.86,1.82-67.63-2.56-78.59-10-18.94-12.91-8-24.56-4-38.24s-5-8.87-10-17.73,11-11.66,11-11.66c-14-4-14-4-8-24.57a14.13,14.13,0,0,0-10-17.72c-32.83-16.94,23.67-32.51,33.8-64.36a89.07,89.07,0,0,0,4-21.16c.46-5.43.46-10.54.71-15.74a95.85,95.85,0,0,1,2-16.71A114.69,114.69,0,0,1,166.09,227c31.07-53.65,87.46-80.89,149.16-79.61A177.29,177.29,0,0,1,437.39,200C483.74,249.83,484.92,329.6,455.55,388.18Z"/><path class="cls-6" d="M223.35,500.22a7.13,7.13,0,0,1,1.61-14c25.19-1.33,45.21-6.19,54.92-13.32a7.12,7.12,0,1,1,8.43,11.48c-15.46,11.36-42.58,15-62.6,16.06A7,7,0,0,1,223.35,500.22Z"/><path class="cls-6" d="M206.8,284a7.09,7.09,0,0,1-9.84,2.19,21.71,21.71,0,0,0-10.58-3.88A84.19,84.19,0,0,0,150.13,292c-.09.05-.18.1-.24.08.46-5.43.46-10.54.71-15.74A82.17,82.17,0,0,1,187.25,268a37.45,37.45,0,0,1,17.36,6.14A7.18,7.18,0,0,1,206.8,284Z"/><path class="cls-7" d="M376.65,385l-29,12a7.12,7.12,0,1,0,5.43,13.16l29-12A7.12,7.12,0,1,0,376.65,385Z"/><path class="cls-7" d="M441.86,315.56l-6.08-33a7.14,7.14,0,0,0-8.3-5.72,6.87,6.87,0,0,0-3.39,1.82,6.5,6.5,0,0,0-6.62-4.64,5.75,5.75,0,0,0,.2-.71,7.09,7.09,0,0,0-6.49-7.69L375,262.56a7.12,7.12,0,0,0-2.6,13.93,7.4,7.4,0,0,0,1.39.26l35.67,3-23,29.43-23.92-33.95a7.13,7.13,0,0,0-10.67-1.12l-30.44,28.25a6.91,6.91,0,0,0-.89,1.25L315,263a7.12,7.12,0,0,0-8-6.08,6.92,6.92,0,0,0-1.47.51,7,7,0,0,0-6.29-.42l-51,22.29a7,7,0,0,0-3.42,3.36l-4.08-39.7a7.12,7.12,0,0,0-14.17,1.46l4.1,39.82a7.11,7.11,0,0,0,7.81,6.36,7,7,0,0,0,5.61-4.12,6.94,6.94,0,0,0,.48,2.2,7.12,7.12,0,0,0,9.38,3.67l47.82-20.92,4.8,34.77a7.05,7.05,0,0,0,12.92,2.93,7,7,0,0,0,1.62,3.36,7.12,7.12,0,0,0,10.07.38l24.46-22.7,21.58,30.61a6.94,6.94,0,0,0,5.26,2.91,6.59,6.59,0,0,0,.94,1.1,7.11,7.11,0,0,0,10-1.23l28.68-36.74,5.79,31.37a7.12,7.12,0,1,0,14-2.59Z"/><path class="cls-7" d="M324.84,331.22a7.12,7.12,0,0,0-13.62,4.19l16.13,52.29A7.13,7.13,0,1,0,341,383.5Z"/><path class="cls-7" d="M416.07,324.84l-24,2.36a7.13,7.13,0,0,0-6.4,7.79,6.7,6.7,0,0,0,.19.74,7,7,0,0,0-2.32.33,7.12,7.12,0,0,0-4.32,9.1l10.6,29.69a7.12,7.12,0,1,0,13.41-4.78l-10.25-28.73c.16,0,.31.06.48,0l24-2.37a7.12,7.12,0,0,0-1.39-14.17Z"/><path class="cls-7" d="M354.47,204.33l25.37,14.77A7.12,7.12,0,0,0,387,206.79L361.63,192a7.12,7.12,0,0,0-7.16,12.31Z"/><path class="cls-7" d="M292.52,194a7.15,7.15,0,0,0,1.38.26l36.19,3.08a7.12,7.12,0,1,0,1.2-14.19l-36.18-3.08A7.12,7.12,0,0,0,292.52,194Z"/><path class="cls-7" d="M239.57,223.13a7.11,7.11,0,0,0,6.27-1.15L271,203.1a7.12,7.12,0,1,0-8.56-11.39l-25.13,18.88a7.13,7.13,0,0,0,2.29,12.54Z"/><path class="cls-7" d="M303.8,308.5l-47.88-13.89a7.12,7.12,0,0,0-4,13.68l47.88,13.89a7.12,7.12,0,1,0,4-13.68Z"/><path class="cls-7" d="M412.42,262.07a7.12,7.12,0,0,0,11.79-8L409,231.55a7.12,7.12,0,1,0-11.79,8Z"/><path class="cls-7" d="M253.26,227.1a7.12,7.12,0,1,0-4,13.68l41,11.9a7.12,7.12,0,0,0,4-13.68Z"/><path class="cls-7" d="M321.66,246.94a7.12,7.12,0,1,0-4,13.68l27.36,7.93a7.12,7.12,0,0,0,4-13.68Z"/><path class="cls-7" d="M328.57,330.37l36.19,3.08a7.12,7.12,0,0,0,1.2-14.19l-36.18-3.08a7.12,7.12,0,0,0-1.21,14.19Z"/><path class="cls-7" d="M276.49,208.63l28.11,32.19.1.08,0,.07a6.46,6.46,0,0,0,.95.78c.18.13.33.31.52.43A7.14,7.14,0,0,0,308,243a6.94,6.94,0,0,0,1.76.27c.19,0,.39,0,.59-.05a6.53,6.53,0,0,0,1.17-.11c.24-.07.47-.15.7-.24a7.53,7.53,0,0,0,1-.37,6.88,6.88,0,0,0,.66-.44,7,7,0,0,0,.8-.54l.05-.06.11-.08,23.75-22,19.88,36.13a7.12,7.12,0,1,0,12.48-6.87l-24.28-44.12a7.12,7.12,0,0,0-11.08-1.79L310.5,225.92l-23.29-26.66a7.12,7.12,0,0,0-10.72,9.37Z"/><circle class="cls-8" cx="344.37" cy="194.2" r="21.37"/><circle class="cls-8" cx="305.99" cy="249.81" r="21.37"/><circle class="cls-8" cx="360.71" cy="265.68" r="21.37"/><circle class="cls-8" cx="379.04" cy="330.32" r="21.37"/><circle class="cls-8" cx="278.84" cy="190.03" r="21.37"/><circle class="cls-8" cx="237.59" cy="229.97" r="21.37"/><circle class="cls-8" cx="240.26" cy="297.48" r="21.37"/><circle class="cls-8" cx="315.5" cy="319.31" r="21.37"/><circle class="cls-8" cx="430.89" cy="330.53" r="21.37"/><circle class="cls-8" cx="426.24" cy="269.86" r="21.37"/><circle class="cls-8" cx="395.12" cy="223.76" r="21.37"/><circle class="cls-8" cx="336.7" cy="399.61" r="21.37"/><circle class="cls-8" cx="392.51" cy="386.14" r="21.37"/></g></svg>