<svg id="Camada_1" data-name="Camada 1" xmlns="http://www.w3.org/2000/svg" viewBox="0 0 622 648"><defs><style>.cls-1{fill:#db0632;}.cls-2{fill:#fff;opacity:0.15;}.cls-3{fill:#303030;}.cls-4{fill:#00a000;}.cls-5{fill:#00438c;}.cls-6{fill:#005fda;}.cls-7{fill:#fff4f4;}</style></defs><title>Icone_oficinaPrancheta 8</title><path class="cls-1" d="M541,329.09a229.06,229.06,0,1,1-229-229h.9a227.84,227.84,0,0,1,117.54,33A229.12,229.12,0,0,1,541,329.09Z"/><path class="cls-2" d="M509.35,297.43A197.39,197.39,0,1,1,312,100.09h.77a196.12,196.12,0,0,1,101.29,28.4,197.41,197.41,0,0,1,95.29,168.93Z"/><path class="cls-3" d="M467.33,231.31a9,9,0,0,1,2.64,6.36V495A230.46,230.46,0,0,1,153,495V160.21c10.66-10.09,5.58-19.18,18-27.11H365.4a9,9,0,0,1,6.36,2.64Zm0,0"/><path d="M468.06,232.15H375.43a4.5,4.5,0,0,1-4.5-4.51V135a9.63,9.63,0,0,1,.83.73l95.57,95.57a8.45,8.45,0,0,1,.73.84Zm0,0"/><path d="M187.25,133.1a9,9,0,0,0-9,9V515.68A231.91,231.91,0,0,1,153,495V142.11a9,9,0,0,1,9-9Zm0,0"/><path class="cls-1" d="M261.08,245.65v9a4.51,4.51,0,0,1-4.5,4.5H203.45a4.51,4.51,0,0,1-4.5-4.5v-9a4.5,4.5,0,0,1,4.5-4.5h53.13a4.5,4.5,0,0,1,4.5,4.5Zm-31.52,40.52H203.45a4.5,4.5,0,0,0-4.5,4.5v9a4.51,4.51,0,0,0,4.5,4.5h26.11a4.51,4.51,0,0,0,4.51-4.5v-9a4.5,4.5,0,0,0-4.51-4.5Zm0,36H203.45a4.51,4.51,0,0,0-4.5,4.51v9a4.5,4.5,0,0,0,4.5,4.5h26.11a4.5,4.5,0,0,0,4.51-4.5v-9a4.51,4.51,0,0,0-4.51-4.51Zm0,72H203.45a4.5,4.5,0,0,0-4.5,4.5v9a4.5,4.5,0,0,0,4.5,4.5h26.11a4.5,4.5,0,0,0,4.51-4.5v-9a4.5,4.5,0,0,0-4.51-4.5Zm0,36H203.45a4.51,4.51,0,0,0-4.5,4.5v9a4.51,4.51,0,0,0,4.5,4.5h26.11a4.51,4.51,0,0,0,4.51-4.5v-9a4.51,4.51,0,0,0-4.51-4.5Zm0,0"/><path class="cls-4" d="M334,299.68v-9a4.49,4.49,0,0,1,4.5-4.5h17.11a4.49,4.49,0,0,1,4.5,4.5v9a4.5,4.5,0,0,1-4.5,4.5H338.51a4.5,4.5,0,0,1-4.5-4.5Zm-63.93,72v-9a4.5,4.5,0,0,0-4.5-4.5H203.45a4.51,4.51,0,0,0-4.5,4.5v9a4.51,4.51,0,0,0,4.5,4.5h62.13a4.5,4.5,0,0,0,4.5-4.5ZM391.63,358.2h-99a4.5,4.5,0,0,0-4.5,4.5v9a4.5,4.5,0,0,0,4.5,4.5h99a4.51,4.51,0,0,0,4.51-4.5v-9a4.51,4.51,0,0,0-4.51-4.5Zm-134.6-54H319.6a4.51,4.51,0,0,0,4.51-4.5v-9a4.5,4.5,0,0,0-4.51-4.5H257a4.5,4.5,0,0,0-4.51,4.5v9a4.51,4.51,0,0,0,4.51,4.5Zm0,36h26.56a4.5,4.5,0,0,0,4.5-4.5v-9a4.51,4.51,0,0,0-4.5-4.51H257a4.51,4.51,0,0,0-4.51,4.51v9a4.5,4.5,0,0,0,4.51,4.5Zm62.57,54H257a4.5,4.5,0,0,0-4.51,4.5v9a4.5,4.5,0,0,0,4.51,4.5H319.6a4.5,4.5,0,0,0,4.51-4.5v-9a4.5,4.5,0,0,0-4.51-4.5Zm99-72H301.82a4.5,4.5,0,0,0-4.5,4.51v9a4.49,4.49,0,0,0,4.5,4.5H418.65a4.5,4.5,0,0,0,4.5-4.5v-9a4.51,4.51,0,0,0-4.5-4.51Zm0,0"/><path class="cls-5" d="M504.18,529.27H315.1a9,9,0,0,1-9-9v-108a9,9,0,0,1,9-9H504.18a9,9,0,0,1,9,9v108a9,9,0,0,1-9,9Zm0,0"/><path class="cls-6" d="M504.18,529.27H333.11a9,9,0,0,1-9-9v-108a9,9,0,0,1,9-9H504.18a9,9,0,0,1,9,9v108a9,9,0,0,1-9,9Zm0,0"/><path class="cls-7" d="M487.7,472.61l-31.6,31.61a4.5,4.5,0,0,1-6.37,0l-5.39-5.39a4.5,4.5,0,0,1,0-6.37l24.94-24.94a1.81,1.81,0,0,0,0-2.55L444.34,440a4.5,4.5,0,0,1,0-6.37l5.39-5.39a4.5,4.5,0,0,1,6.37,0l31.6,31.6a9,9,0,0,1,0,12.73ZM375,440a4.51,4.51,0,0,0,0-6.36l-5.4-5.39a4.49,4.49,0,0,0-6.36,0l-31.61,31.6a9,9,0,0,0,0,12.73l31.61,31.61a4.49,4.49,0,0,0,6.36,0l5.4-5.39a4.52,4.52,0,0,0,0-6.37L350,467.52a1.79,1.79,0,0,1,0-2.55Zm47.21-18.8h-8.83a4.5,4.5,0,0,0-4.41,3.62l-16.21,81a4.51,4.51,0,0,0,4.42,5.39H406a4.51,4.51,0,0,0,4.42-3.62l16.2-81a4.5,4.5,0,0,0-4.41-5.38Zm0,0"/></svg>