<svg id="Camada_1" data-name="Camada 1" xmlns="http://www.w3.org/2000/svg" viewBox="0 0 622 648"><defs><style>.cls-1{fill:#6a0116;}.cls-2{fill:#fff;opacity:0.15;}.cls-3{fill:#00be69;}.cls-4{fill:#d3d3d3;}.cls-5{fill:#efefef;}.cls-6{fill:#e1e1e1;}.cls-7{fill:#00a658;}.cls-8{fill:#060;}</style></defs><title>Icone_oficinaPrancheta 9</title><path class="cls-1" d="M532,328.09a229.06,229.06,0,1,1-229-229h.9a227.84,227.84,0,0,1,117.54,33A229.12,229.12,0,0,1,532,328.09Z"/><path class="cls-2" d="M480.35,353.43A197.39,197.39,0,1,1,283,156.09h.77a196.12,196.12,0,0,1,101.29,28.4,197.41,197.41,0,0,1,95.29,168.93Z"/><path class="cls-3" d="M518.55,407.13H457.2v92a230.23,230.23,0,0,1-22.41,18v-110H270.23V384.72H434.79V216.63H457.2V384.72h68.11a224.7,224.7,0,0,1-6.76,22.41ZM162.65,378h22.41V189.74H162.65Zm304.8-203h-260v22.41h260Zm0,0"/><path class="cls-4" d="M514,239.23l-55.28,55.28a17.93,17.93,0,0,1-25.35,0l-69.73-69.73a17.93,17.93,0,0,1,0-25.35l63.56-63.56A230.29,230.29,0,0,1,514,239.23Zm0,0"/><path class="cls-5" d="M514,239.23l-55.28,55.28a16.88,16.88,0,0,1-1.33,1.21c-.07-.08-.15-.14-.22-.21L411.3,249.69a53.15,53.15,0,0,1,0-75.17l29.26-29.26a230.15,230.15,0,0,1,73.39,94Zm0,0"/><path class="cls-4" d="M243.33,161.84v44.83a9,9,0,0,1-9,9H108.86a8.92,8.92,0,0,1-5.21-1.68,230.37,230.37,0,0,1,51.23-61.07h79.49a9,9,0,0,1,9,9ZM446.83,368a26.9,26.9,0,1,0,26.9,26.9,26.89,26.89,0,0,0-26.9-26.9Zm0,0"/><path class="cls-5" d="M243.33,161.84v34.32a26.85,26.85,0,0,1-9,1.54H144.72a26.85,26.85,0,0,1-22.12-11.6,230.45,230.45,0,0,1,32.28-33.22h79.49a9,9,0,0,1,9,9ZM458.19,370.55a26.89,26.89,0,0,0,0,48.76,26.89,26.89,0,0,0,0-48.76Zm0,0"/><path class="cls-6" d="M305.83,353.27v22.22h37.56a7.68,7.68,0,0,1,7.67,7.67v24.52a7.67,7.67,0,0,1-7.67,7.67H305.83v22.23h37.56a7.67,7.67,0,0,1,7.67,7.66v24.53a7.67,7.67,0,0,1-7.67,7.66H305.83V515a7.67,7.67,0,0,1-7.66,7.67H273.64A7.67,7.67,0,0,1,266,515V477.43H243.75V515a7.67,7.67,0,0,1-7.67,7.67H211.56a7.68,7.68,0,0,1-7.67-7.67V477.43H181.67V515a7.68,7.68,0,0,1-7.67,7.67H149.48a7.67,7.67,0,0,1-7.67-7.67V477.43H104.25a7.66,7.66,0,0,1-7.66-7.66V445.24a7.66,7.66,0,0,1,7.66-7.66h37.56V415.35H104.25a7.66,7.66,0,0,1-7.66-7.67V383.16a7.67,7.67,0,0,1,7.66-7.67h37.56V353.27H104.25a7.66,7.66,0,0,1-7.66-7.67V321.07a7.66,7.66,0,0,1,7.66-7.66h37.56V275.85a7.66,7.66,0,0,1,7.67-7.66H174a7.67,7.67,0,0,1,7.67,7.66v37.56h22.22V275.85a7.67,7.67,0,0,1,7.67-7.66h24.52a7.66,7.66,0,0,1,7.67,7.66v37.56H266V275.85a7.66,7.66,0,0,1,7.66-7.66h24.53a7.66,7.66,0,0,1,7.66,7.66v37.56h37.56a7.67,7.67,0,0,1,7.67,7.66V345.6a7.67,7.67,0,0,1-7.67,7.67Zm0,0"/><path class="cls-6" d="M158.67,383.16v24.52a7.66,7.66,0,0,0,7.67,7.67H104.25a7.66,7.66,0,0,1-7.66-7.67V383.16a7.67,7.67,0,0,1,7.66-7.67h62.09a7.67,7.67,0,0,0-7.67,7.67Zm0-37.56V321.07a7.66,7.66,0,0,1,7.67-7.66H104.25a7.66,7.66,0,0,0-7.66,7.66V345.6a7.66,7.66,0,0,0,7.66,7.67h62.09a7.66,7.66,0,0,1-7.67-7.67Zm7.67,92H104.25a7.66,7.66,0,0,0-7.66,7.66v24.53a7.66,7.66,0,0,0,7.66,7.66h62.09a7.66,7.66,0,0,1-7.67-7.66V445.24a7.66,7.66,0,0,1,7.67-7.66Zm0,0"/><path class="cls-7" d="M312,498.89H135.68a15.32,15.32,0,0,1-15.33-15.32V307.28A15.33,15.33,0,0,1,135.68,292H312a15.32,15.32,0,0,1,15.32,15.33V483.57A15.32,15.32,0,0,1,312,498.89Zm0,0"/><path class="cls-3" d="M312,498.89H167.36A15.32,15.32,0,0,1,152,483.57V307.28A15.33,15.33,0,0,1,167.36,292H312a15.32,15.32,0,0,1,15.32,15.33V483.57A15.32,15.32,0,0,1,312,498.89Zm0,0"/><path class="cls-8" d="M220.81,439.22a17.74,17.74,0,0,0,34,7.09h50.26v26.53a3.84,3.84,0,0,1-3.83,3.83h-108v-51a17.74,17.74,0,1,0-14.19,0v51H146.41a3.83,3.83,0,0,1-3.83-3.83V360H199a17.75,17.75,0,1,0,0-14.19H142.58V318a3.82,3.82,0,0,1,3.83-3.83H250.7v58a17.74,17.74,0,1,0,14.18,0v-58h36.36a3.83,3.83,0,0,1,3.83,3.83V432.13H254.81a17.74,17.74,0,0,0-34,7.09Zm0,0"/></svg>