<svg id="Camada_1" data-name="Camada 1" xmlns="http://www.w3.org/2000/svg" xmlns:xlink="http://www.w3.org/1999/xlink" viewBox="0 0 622 648"><defs><style>.cls-1{fill:none;}.cls-2{fill:#002700;}.cls-3{fill:#fff;opacity:0.15;}.cls-4{clip-path:url(#clip-path);}.cls-5{fill:#e1e1e1;}.cls-6{fill:#0052b0;}.cls-7{clip-path:url(#clip-path-2);}.cls-8{fill:#303030;}</style><clipPath id="clip-path"><path class="cls-1" d="M546,329.09a229,229,0,1,1-458,0c0-51-33.19-122.94-5-161,17.76-24,89.95-19.53,115.56-35a228,228,0,0,1,118.44-33h.9a227.84,227.84,0,0,1,117.54,33c25.61,15.51,103.8,19.06,121.56,43C585.19,214.15,546,278.09,546,329.09Z"/></clipPath><clipPath id="clip-path-2"><path class="cls-1" d="M530.58,326V433.77a23.11,23.11,0,0,1-.68,5.61q-2.83,5.52-5.94,10.87a23.76,23.76,0,0,1-17.26,7.41H431.33a31.38,31.38,0,0,1-24.73-12.19,62.76,62.76,0,0,0-49.5-24.41h-80a62.77,62.77,0,0,0-49.51,24.41,31.37,31.37,0,0,1-24.73,12.19H127.51a23.78,23.78,0,0,1-17.24-7.38c-2.1-3.59-4.08-7.23-6-10.94a23.21,23.21,0,0,1-.66-5.57V326a53.85,53.85,0,0,1,53.78-53.8H476.79A53.86,53.86,0,0,1,530.58,326Z"/></clipPath></defs><title>Icone_oficinaPrancheta 12</title><path class="cls-2" d="M546,329.09a229.06,229.06,0,1,1-229-229h.9a227.84,227.84,0,0,1,117.54,33A229.12,229.12,0,0,1,546,329.09Z"/><path class="cls-3" d="M514.35,297.43A197.39,197.39,0,1,1,317,100.09h.77a196.12,196.12,0,0,1,101.29,28.4,197.41,197.41,0,0,1,95.29,168.93Z"/><g class="cls-4"><path class="cls-5" d="M277.35,371.1h80.1a46.85,46.85,0,0,1,37.16,18.32,46.85,46.85,0,0,0,37.16,18.32h75.47a39.56,39.56,0,0,0,39.56-39.55V260.31a69.51,69.51,0,0,0-69.51-69.51H157.5A69.51,69.51,0,0,0,88,260.31V368.19a39.56,39.56,0,0,0,39.56,39.55H203a46.84,46.84,0,0,0,37.16-18.32,46.87,46.87,0,0,1,37.17-18.32Zm0,0"/><path class="cls-6" d="M546.8,326.27v73a238.7,238.7,0,0,1-37.49,74.43c-.68,0-1.38,0-2.07,0H431.78a46.8,46.8,0,0,1-37.17-18.32,46.86,46.86,0,0,0-37.16-18.33H277.36a46.81,46.81,0,0,0-37.17,18.33A46.87,46.87,0,0,1,203,473.7H127.56c-.69,0-1.39,0-2.07,0A238.91,238.91,0,0,1,88,399.23v-73a69.51,69.51,0,0,1,69.5-69.51H477.3a69.51,69.51,0,0,1,69.5,69.51Zm0,0"/><path d="M531.15,326.27V434.14a23.63,23.63,0,0,1-.67,5.62q-2.85,5.53-6,10.89a23.8,23.8,0,0,1-17.28,7.42H431.78A31.44,31.44,0,0,1,407,445.86a62.87,62.87,0,0,0-49.56-24.44H277.36a62.89,62.89,0,0,0-49.58,24.44A31.42,31.42,0,0,1,203,458.07H127.56a23.82,23.82,0,0,1-17.26-7.39c-2.1-3.6-4.09-7.24-6-11a23.23,23.23,0,0,1-.66-5.58V326.27a53.92,53.92,0,0,1,53.85-53.87h319.8a53.93,53.93,0,0,1,53.86,53.87Zm0,0"/><g class="cls-7"><rect class="cls-8" x="420.99" y="271.77" width="58" height="185.59"/><rect class="cls-8" x="363" y="271.77" width="34.8" height="185.59"/></g><path class="cls-8" d="M160.06,324.53a4.1,4.1,0,0,1-.16-.89c0-3,4.62-5.19,8.11-5.19,2,0,3.64.65,4.13,2.35l11.35,41.6,11.27-41.6c.49-1.7,2.11-2.35,4.13-2.35,3.49,0,8.11,2.19,8.11,5.19a4.1,4.1,0,0,1-.16.89L191.76,374c-.89,2.84-4.54,4.22-8.27,4.22s-7.38-1.38-8.27-4.22Zm0,0"/><path class="cls-8" d="M216.89,322.26a3.78,3.78,0,0,1,3.89-3.81h16.78c11.11,0,19.95,4.14,19.95,17.35,0,9.08-4.13,14.27-9.81,16.46l9.89,17.92a2.69,2.69,0,0,1,.41,1.46c0,3.16-4.22,6.57-7.95,6.57a4.32,4.32,0,0,1-4.05-2.35l-11.11-21.57h-5.35v19.54c0,2.59-3.16,3.89-6.33,3.89s-6.32-1.3-6.32-3.89Zm12.65,7.22v15.08h8c4.54,0,7.3-1.87,7.3-7.54s-2.75-7.54-7.3-7.54Zm0,0"/></g></svg>