<svg id="Camada_1" data-name="Camada 1" xmlns="http://www.w3.org/2000/svg" xmlns:xlink="http://www.w3.org/1999/xlink" viewBox="0 0 622 648"><defs><style>.cls-1{fill:none;}.cls-2{fill:#060;}.cls-3{fill:#fff;opacity:0.2;}.cls-4{clip-path:url(#clip-path);}.cls-5{fill:#d3d3d3;}.cls-6{fill:#bcbcbc;}.cls-7{fill:#0052b0;}.cls-8{fill:#005fda;}.cls-9{fill:#003b81;}.cls-10{fill:#003c58;}.cls-11{fill:#efefef;}.cls-12{fill:#ffb800;}</style><clipPath id="clip-path"><path class="cls-1" d="M538.7,329.09A229,229,0,1,1,125.57,192.92a230.37,230.37,0,0,1,65.7-59.87c34.55-20.92,74.38-72,117.73-72,5,0,31.7,3,32,3,43,.16,52.83,48.18,87.14,69a230.37,230.37,0,0,1,65.7,59.87A228,228,0,0,1,538.7,329.09Z"/></clipPath></defs><title>Icone_oficinaPrancheta 13</title><path class="cls-2" d="M541,328.09A229,229,0,1,1,127.87,191.92a230.37,230.37,0,0,1,65.7-59.87A227.9,227.9,0,0,1,312,99.09h.9a227.79,227.79,0,0,1,117.54,33,230.37,230.37,0,0,1,65.7,59.87A228,228,0,0,1,541,328.09Z"/><path class="cls-3" d="M509.35,296.43a196.51,196.51,0,0,1-38.66,117.35,198.66,198.66,0,0,1-30.61,32.8A197.37,197.37,0,1,1,312,99.09h.78a196.12,196.12,0,0,1,101.29,28.4,197.38,197.38,0,0,1,95.28,168.93Z"/><g class="cls-4"><rect class="cls-5" x="200.11" y="382.96" width="231.13" height="86.67"/><rect class="cls-6" x="200.11" y="390.18" width="231.13" height="14.45"/><rect class="cls-7" x="265.11" y="267.4" width="101.12" height="43.34"/><path class="cls-8" d="M366.24,310.73H286.79V296.28a7.22,7.22,0,0,1,7.22-7.22h72.23Z"/><path class="cls-5" d="M438.47,390.18H192.89l11.43-68.57a21.66,21.66,0,0,1,21.37-18.1h180A21.66,21.66,0,0,1,427,321.61Z"/><rect class="cls-7" x="243.45" y="462.42" width="144.46" height="28.89"/><path class="cls-9" d="M351.79,469.63v-7.22H279.56v7.22a7.23,7.23,0,0,1-7.22,7.23H243.45V491.3H387.91V476.86H359A7.23,7.23,0,0,1,351.79,469.63Z"/><path class="cls-8" d="M236.23,549.09H164a14.45,14.45,0,0,1-14.45-14.45V419.07H250.67V534.64A14.44,14.44,0,0,1,236.23,549.09Z"/><path class="cls-9" d="M171.22,520.2V419.07H149.55V534.64A14.45,14.45,0,0,0,164,549.09h72.23a14.44,14.44,0,0,0,14.44-14.45h-65A14.45,14.45,0,0,1,171.22,520.2Z"/><rect class="cls-7" x="149.55" y="505.75" width="101.12" height="14.45"/><rect class="cls-7" x="149.55" y="476.86" width="101.12" height="14.45"/><rect class="cls-7" x="149.55" y="447.97" width="101.12" height="14.45"/><rect class="cls-10" x="149.55" y="505.75" width="21.67" height="14.45"/><rect class="cls-10" x="149.55" y="476.86" width="21.67" height="14.45"/><rect class="cls-10" x="149.55" y="447.97" width="21.67" height="14.45"/><path class="cls-8" d="M467.36,549.09H395.13a14.44,14.44,0,0,1-14.44-14.45V419.07H481.81V534.64A14.45,14.45,0,0,1,467.36,549.09Z"/><path class="cls-9" d="M402.35,520.2V419.07H380.69V534.64a14.44,14.44,0,0,0,14.44,14.45h72.23a14.45,14.45,0,0,0,14.45-14.45h-65A14.45,14.45,0,0,1,402.35,520.2Z"/><rect class="cls-7" x="380.69" y="505.75" width="101.12" height="14.45"/><rect class="cls-7" x="380.69" y="476.86" width="101.12" height="14.45"/><rect class="cls-7" x="380.69" y="447.97" width="101.12" height="14.45"/><rect class="cls-10" x="380.69" y="505.75" width="21.67" height="14.45"/><rect class="cls-10" x="380.69" y="476.86" width="21.67" height="14.45"/><rect class="cls-10" x="380.69" y="447.97" width="21.67" height="14.45"/><path class="cls-11" d="M402.35,274.61H229a14.43,14.43,0,0,1-14.44-14.44V231.28A14.44,14.44,0,0,1,229,216.83H402.35a14.45,14.45,0,0,1,14.45,14.45v28.89A14.44,14.44,0,0,1,402.35,274.61Z"/><path class="cls-12" d="M328.34,191a8.66,8.66,0,0,1-6.12-2.54,8.66,8.66,0,0,0-12.23,0,8.65,8.65,0,1,1-12.24-12.23,26,26,0,0,1,36.71,0A8.66,8.66,0,0,1,328.34,191Z"/><path class="cls-12" d="M389.54,129.75a8.61,8.61,0,0,1-6.12-2.53,95.32,95.32,0,0,0-134.63,0A8.65,8.65,0,0,1,236.56,115a112.64,112.64,0,0,1,159.1,0,8.65,8.65,0,0,1-6.12,14.77Z"/><path class="cls-12" d="M358.94,160.35a8.61,8.61,0,0,1-6.11-2.53,52,52,0,0,0-73.44,0,8.65,8.65,0,0,1-12.24-12.24,69.32,69.32,0,0,1,97.91,0,8.65,8.65,0,0,1-6.12,14.77Z"/><path class="cls-11" d="M256.33,453.24,140.76,427.55a7.21,7.21,0,0,1-5.65-7.05V383a7.22,7.22,0,0,1,7.22-7.22H257.9a7.22,7.22,0,0,1,7.22,7.22v63.23A7.22,7.22,0,0,1,256.33,453.24Z"/><path class="cls-11" d="M375,453.24,490.6,427.55a7.21,7.21,0,0,0,5.65-7.05V383a7.22,7.22,0,0,0-7.22-7.22H373.46a7.22,7.22,0,0,0-7.22,7.22v63.23A7.22,7.22,0,0,0,375,453.24Z"/><path class="cls-11" d="M326.51,505.75H304.85A10.84,10.84,0,0,1,294,494.91V458.8A10.83,10.83,0,0,1,304.85,448h21.66a10.83,10.83,0,0,1,10.84,10.83v36.11A10.84,10.84,0,0,1,326.51,505.75Z"/><circle class="cls-5" cx="265.11" cy="224.06" r="28.89"/><path class="cls-8" d="M322.9,253H308.46a7.23,7.23,0,1,1,0-14.45H322.9a7.23,7.23,0,1,1,0,14.45Z"/><path class="cls-8" d="M387.91,253H351.79a7.23,7.23,0,0,1,0-14.45h36.12a7.23,7.23,0,0,1,0,14.45Z"/><path class="cls-6" d="M279.56,332.4l4.49,18a14.45,14.45,0,0,0,14,10.94h35.22a14.45,14.45,0,0,0,14-10.94l4.48-18Z"/><circle class="cls-8" cx="265.11" cy="224.06" r="14.45"/><path class="cls-6" d="M173.74,417.4a21.67,21.67,0,0,1-17-21.15V375.74H142.33a7.22,7.22,0,0,0-7.22,7.22V420.5a7.21,7.21,0,0,0,5.65,7.05l115.57,25.69a7.22,7.22,0,0,0,8.79-7.05v-8.48Z"/><path class="cls-11" d="M225.69,303.51a21.66,21.66,0,0,0-21.37,18.1l-1.8,10.79H428.84L427,321.61a21.67,21.67,0,0,0-21.37-18.1Z"/><path class="cls-6" d="M326.51,491.3H304.85A10.83,10.83,0,0,1,294,480.47v14.45a10.83,10.83,0,0,0,10.84,10.83h21.66a10.83,10.83,0,0,0,10.84-10.83V480.47A10.83,10.83,0,0,1,326.51,491.3Z"/><path class="cls-6" d="M414.28,427.66a21.67,21.67,0,0,1-26.37-21.15V375.74H373.46a7.22,7.22,0,0,0-7.22,7.22v63.22a7.23,7.23,0,0,0,8.79,7.06L490.6,427.55a7.21,7.21,0,0,0,5.65-7.05V409.44Z"/></g></svg>