<svg id="Camada_1" data-name="Camada 1" xmlns="http://www.w3.org/2000/svg" viewBox="0 0 622 648"><defs><style>.cls-1{fill:#00a000;}.cls-2{fill:#fff;opacity:0.2;}.cls-3{fill:#003c58;}.cls-4{fill:#d3d3d3;}.cls-5{fill:#efefef;}.cls-6{fill:#0052b0;}.cls-7{fill:#005fda;}.cls-8{fill:#bbbbbc;}.cls-9{fill:#db0a33;}.cls-10{fill:#ffb800;}.cls-11{fill:#00be69;}</style></defs><title>Icone_oficinaPrancheta 14</title><path class="cls-1" d="M541,324.17a228,228,0,0,1-44.86,136.16,230.43,230.43,0,0,1-35.52,38.06A229,229,0,1,1,312,95.17h.9a227.7,227.7,0,0,1,117.54,33A229.07,229.07,0,0,1,541,324.17Z"/><path class="cls-2" d="M509.35,292.51a196.51,196.51,0,0,1-38.66,117.35,199.06,199.06,0,0,1-30.61,32.8,197.25,197.25,0,0,1-256.15,0,198.63,198.63,0,0,1-30.61-32.8A197.32,197.32,0,0,1,312,95.17h.78a196.22,196.22,0,0,1,101.29,28.41,197.38,197.38,0,0,1,95.28,168.93Z"/><path class="cls-3" d="M348.24,337.7a35.93,35.93,0,1,1-35.93-35.93,35.93,35.93,0,0,1,35.93,35.93Zm0,0"/><path class="cls-4" d="M390.94,340.49H235.05c-45.31,0-82.05-52.73-82.05-117.77V210.94c0-65,36.74-117.77,82.05-117.77H390.94c45.31,0,82.05,52.73,82.05,117.77v11.78c0,65-36.74,117.77-82.05,117.77Z"/><path class="cls-4" d="M520.7,422.45a230.65,230.65,0,0,1-47.44,66.9l-30.44-30.44c-.32-.32-.63-.65-.93-1v41.46a90.94,90.94,0,0,1-1.57,16.79A230,230,0,0,1,182.5,515a90.8,90.8,0,0,1-1.34-15.57V459.55l-29.81,29.8a230.43,230.43,0,0,1-47.43-66.9l20.71-20.71a35.84,35.84,0,0,1,29.63-10.26,35.93,35.93,0,0,1,68.61-12.86,89.32,89.32,0,0,1,48.12-14h81.07a89.44,89.44,0,0,1,55.07,18.86,35.92,35.92,0,0,1,70.39,7.84A35.78,35.78,0,0,1,500,401.74Z"/><path class="cls-5" d="M268,340.49c-45.31,0-82-52.73-82-117.77V210.94c0-65,36.74-117.77,82-117.77H391.85c45.32,0,82,52.73,82,117.77v11.78c0,65-36.73,117.77-82,117.77Z"/><path class="cls-5" d="M190.14,429.37a35.91,35.91,0,0,1-31-17.71,35.66,35.66,0,0,0-15.48,9.14l-26.33,26.32a230.87,230.87,0,0,0,34,42.23l30.45-30.44a35.86,35.86,0,0,0,10.27-29.59c-.64,0-1.28.05-1.93.05Z"/><path class="cls-5" d="M500,401.74a35.8,35.8,0,0,0-22.47-10.4c.05.69.07,1.39.07,2.1a35.94,35.94,0,0,1-23.87,33.85,35.63,35.63,0,0,0,8.15,12.56l29.52,29.52a229.93,229.93,0,0,0,29.31-46.92Z"/><path class="cls-5" d="M405.73,393.44a36.08,36.08,0,0,1,1.52-10.35,89.4,89.4,0,0,0-54.52-18.44H306.92a89.83,89.83,0,0,0-89.83,89.83v44.91a89.37,89.37,0,0,0,8.84,38.9,230.2,230.2,0,0,0,215.15-22.62,90,90,0,0,0,1.48-16.28V454.48A90.05,90.05,0,0,0,439,429.26a35.92,35.92,0,0,1-33.24-35.82Z"/><path class="cls-6" d="M391.62,271.12H250.5c-20.39,0-36.92-23.73-36.92-53s16.53-53,36.92-53H391.62c20.39,0,36.92,23.73,36.92,53s-16.53,53-36.92,53Zm0,0"/><path class="cls-7" d="M391.62,271.12H271c-20.39,0-36.92-23.73-36.92-53s16.53-53,36.92-53H391.62c20.39,0,36.92,23.73,36.92,53s-16.53,53-36.92,53Zm0,0"/><path class="cls-5" d="M277.29,188.67a29.45,29.45,0,1,0,29.44,29.45,29.45,29.45,0,0,0-29.44-29.45Zm0,41.22a11.78,11.78,0,1,1,11.77-11.77,11.77,11.77,0,0,1-11.77,11.77Zm103.3-41.22A29.45,29.45,0,1,0,410,218.12a29.45,29.45,0,0,0-29.45-29.45Zm0,41.22a11.78,11.78,0,1,1,11.78-11.77,11.77,11.77,0,0,1-11.78,11.77Zm14.43,0"/><path class="cls-5" d="M208.11,393.44a18,18,0,1,1-18-18,18,18,0,0,1,18,18Zm233.55-18a18,18,0,1,0,18,18,18,18,0,0,0-18-18Zm0,0"/><path class="cls-8" d="M208.11,393.44a18,18,0,0,1-11.23,16.65,18.09,18.09,0,0,1-8-6.38,1.44,1.44,0,0,1,1.22-2.26h0a8,8,0,0,0,2-15.78,8.35,8.35,0,0,0-2-.24,1.43,1.43,0,0,1-1.2-2.26,18.09,18.09,0,0,1,8-6.38,18,18,0,0,1,11.23,16.65ZM448.4,376.79a18,18,0,0,0-8,6.38,1.43,1.43,0,0,0,1.2,2.26,8.35,8.35,0,0,1,2,.24,8,8,0,0,1-2,15.78h0a1.44,1.44,0,0,0-1.22,2.26,17.91,17.91,0,0,0,8,6.38,18,18,0,0,0,0-33.3Zm0,0"/><path class="cls-9" d="M378.78,391.6a9,9,0,1,1-9,9,9,9,0,0,1,9-9Z"/><path class="cls-10" d="M342.85,400.58a9,9,0,1,0,9-9,9,9,0,0,0-9,9Z"/><path class="cls-11" d="M324.88,391.6a9,9,0,1,1-9,9,9,9,0,0,1,9-9Zm0,0"/></svg>