<svg id="Camada_1" data-name="Camada 1" xmlns="http://www.w3.org/2000/svg" xmlns:xlink="http://www.w3.org/1999/xlink" viewBox="0 0 622 648"><defs><style>.cls-1{fill:none;}.cls-2{fill:#00be69;}.cls-3{fill:#fff;opacity:0.2;}.cls-4{clip-path:url(#clip-path);}.cls-5{fill:#e1e1e1;}.cls-6{fill:#005fda;}.cls-7{fill:#003b81;}.cls-8{fill:#003c58;}</style><clipPath id="clip-path"><path class="cls-1" d="M539.81,326.09A229,229,0,1,1,126.68,189.92c17.76-24,2.71-65.79,28.32-81.29C189.56,87.7,267.46,97.09,310.81,97.09h.9c43,.16,154,.74,188.29,21.53,25.61,15.5-22.81,47.32-5.05,71.29A228,228,0,0,1,539.81,326.09Z"/></clipPath></defs><title>Icone_oficinaPrancheta 15</title><path class="cls-2" d="M539.81,326.09A229,229,0,1,1,126.68,189.92a230.37,230.37,0,0,1,65.7-59.87,227.9,227.9,0,0,1,118.43-33h.9a227.79,227.79,0,0,1,117.54,33A230.37,230.37,0,0,1,495,189.92,228,228,0,0,1,539.81,326.09Z"/><path class="cls-3" d="M508.16,294.43A196.51,196.51,0,0,1,469.5,411.78a198.66,198.66,0,0,1-30.61,32.8A197.37,197.37,0,1,1,310.81,97.09h.78a196.12,196.12,0,0,1,101.29,28.4,197.38,197.38,0,0,1,95.28,168.93Z"/><g class="cls-4"><path class="cls-5" d="M524.21,326.09a246.43,246.43,0,0,0-426.79,0,246.44,246.44,0,0,0,426.79,0Zm0,0"/><path class="cls-6" d="M432.75,326.09A121.94,121.94,0,1,1,310.81,204.15,121.94,121.94,0,0,1,432.75,326.09Zm0,0"/><path class="cls-7" d="M376.47,326.09a65.66,65.66,0,1,1-65.66-65.66,65.66,65.66,0,0,1,65.66,65.66Zm0,0"/><path class="cls-8" d="M208,153.2A10.26,10.26,0,0,0,197.75,143H157.26A10.25,10.25,0,0,0,147,153.2v38.5A10.25,10.25,0,0,0,157.26,202h0a10.25,10.25,0,0,0,10.25-10.25V163.45h30.24A10.26,10.26,0,0,0,208,153.2Z"/><path class="cls-8" d="M461.75,204A10.25,10.25,0,0,0,472,193.7V153.21A10.25,10.25,0,0,0,461.75,143H423.26A10.25,10.25,0,0,0,413,153.21h0a10.25,10.25,0,0,0,10.25,10.25H451.5V193.7A10.25,10.25,0,0,0,461.75,204Z"/><path class="cls-8" d="M157.73,450.34a10.25,10.25,0,0,0-10.25,10.25v40.49a10.25,10.25,0,0,0,10.25,10.26h38.49a10.26,10.26,0,0,0,10.26-10.26h0a10.25,10.25,0,0,0-10.26-10.25H168V460.59a10.25,10.25,0,0,0-10.26-10.25Z"/><path class="cls-8" d="M413.48,500.08a10.25,10.25,0,0,0,10.25,10.26h40.49a10.26,10.26,0,0,0,10.26-10.26V461.59a10.25,10.25,0,0,0-10.26-10.25h0A10.25,10.25,0,0,0,454,461.59v28.24H423.73a10.25,10.25,0,0,0-10.25,10.25Z"/><path class="cls-8" d="M486,315.63H321v-165a10,10,0,0,0-20,0v165H136a10,10,0,0,0,0,20H301v165a10,10,0,0,0,20,0v-165H486a10,10,0,0,0,0-20Z"/></g></svg>